<svg xmlns="http://www.w3.org/2000/svg" fill="none" viewBox="0 0 150 150"><path fill="#c99a88" fill-rule="evenodd" d="M46.052 42.656c.914-15.054 13.899-32.075 30.244-29.37 5.547.589 11.271 2.087 15.65 5.828 3.014 2.557 5.027 6.196 5.666 10.037.313 1.847.474 3.726.377 5.687a.94.94 0 0 1-.43.736c-.252.17-.574.232-.89.174a1.2 1.2 0 0 1-.771-.481.94.94 0 0 1-.139-.84c.542-1.56.653-3.343.363-5.02-.584-3.51-2.552-6.719-5.38-8.798-4.115-3.054-9.449-3.878-14.605-3.788-14.255-.234-21.509 14.071-22.559 26.556a6 6 0 0 1-.034.282l-.027.178a96 96 0 0 0-.984 14.56c8.315.319 16.998.401 24.866-.509.43-.068.86-.154 1.111-.233a2.73 2.73 0 0 1 2.139.254 2.88 2.88 0 0 1 1.324 1.75 2.87 2.87 0 0 1-.277 2.177 2.73 2.73 0 0 1-1.728 1.285c-.697.17-1.266.243-1.834.31-8.844.61-17.014.132-25.431-.555.176 2.682.495 5.343.982 7.916 6.37.052 12.892-.026 18.994-.568.363-.042.727-.093.974-.147.719-.146 1.457.02 2.051.47s.998 1.15 1.12 1.933a3.1 3.1 0 0 1-.478 2.208 2.63 2.63 0 0 1-1.803 1.134c-.534.078-.977.108-1.425.136-6.302.195-12.265-.061-18.31-.442 3.027 10.383 9.447 18.409 21.454 18.883 6.725.42 13.539-2.424 19.193-6.689 2.427-1.84 4.805-3.86 7.008-6.072 2.457-6.29 4.415-13.057 6.557-19.128a10 10 0 0 1 .406-.713c.156-.24.301-.443.532-.695.351-.408 1.171-.95 1.987-.7 1.148.26 1.694 1.51 1.732 2.333.081.89-.054 1.719-.235 2.53-.373 1.594-.979 3.112-1.612 4.56-1.695 3.708-3.671 7.336-6.012 10.727-3.61 12.833-9.288 25.406-24.801 28.014q-.217.026-.435.049c-.955.379-2.563 1.798-3.294 3.094-1.266 2.212-2.116 4.998-2.244 7.686 5.812.075 11.652.939 16.985 3.829q.505.295.977.619c.182.126.345.256.501.42.202.227.366.406.495.871.117.416-.004.954-.2 1.251a2.2 2.2 0 0 1-.572.613c-.722.508-1.302.657-1.911.843-3.107.795-6.11.905-9.184.801-1.53-.071-3.08-.226-4.645-.602-1.516-.461-3.388-.729-4.65-3.035a17 17 0 0 1-.811-2.717q-.541.042-1.076.091c-3.39.364-6.822 1.022-9.869 2.212-1.49.588-2.99 1.408-3.629 2.267a1.2 1.2 0 0 0-.236.479.64.64 0 0 0 .037.353c.112.329.478.804 1.051 1.286q.09.077.183.152c8.81 5.847 22.127 6.898 33.235 4.108l.164-.05c1.948-.605 3.92-1.564 5.1-2.958a.97.97 0 0 1 .792-.322c.302.016.594.159.81.393.214.235.33.539.32.842a.97.97 0 0 1-.392.76c-1.996 1.432-4.111 2.078-6.189 2.731l-.172.052c-11.638 2.736-24.542 4.471-35.925-2.762a12 12 0 0 1-.25-.206c-.84-.742-1.614-1.486-2.118-2.895-.53-1.39-.01-3.19.792-4.115 1.639-1.931 3.457-2.59 5.24-3.277 3.576-1.245 7.214-1.74 10.821-1.964q.482-.02.966-.034c-.114-3.291.723-6.535 2.153-9.609.183-.336.382-.691.603-1.051-7.907-.255-15.956-2.238-22.432-7.14-7.792-5.796-11.812-15.001-13.434-23.962-.554-2.965-.89-5.957-1.079-8.952-.16-2.564-.316-5.13-.493-7.713a.99.99 0 0 1 .325-.792c.222-.206.526-.316.841-.307.316.009.613.137.822.355a.99.99 0 0 1 .279.81 39.6 39.6 0 0 0-.265 7.553c.184 2.934.57 5.856 1.201 8.714 2.864 18.54 21.152 29.055 38.597 26.874q.852-.046 1.658-.146c9.394-1.166 15.122-7.77 19.298-16.223a45 45 0 0 1-2.42 2.234c-5.754 4.85-13.057 8.663-21.167 8.733-12.484.944-24.163-9.511-27.52-20.99-3.916-11.471-4.254-23.44-2.604-35.13zm29.13 79.46c.096.592.236 1.167.425 1.715.06.444 1.347 1.217 2.597 1.558 1.279.384 2.69.605 4.097.731 2.81.229 5.796.176 8.411-.47.21-.055.425-.126.615-.198a13 13 0 0 0-.442-.27c-4.635-2.541-10.215-3.215-15.702-3.066m36.456-60.444c-.319-.134-.904.648-1.255 1.492-1.257 4.042-2.294 8.682-3.505 13.423 1.658-2.194 3.108-4.546 4.261-7.066.619-1.414 1.137-2.93 1.382-4.437.257-1.413.136-3.336-.883-3.412" clip-rule="evenodd"/></svg>