<svg width="608" height="125" viewBox="0 0 608 125" fill="none" xmlns="http://www.w3.org/2000/svg">
<path fill-rule="evenodd" clip-rule="evenodd" d="M9.05207 29.6557C9.96621 14.6016 22.951 -2.4191 39.2962 0.285555C44.8426 0.874645 50.567 2.37284 54.9466 6.11368C57.9599 8.67143 59.9729 12.3102 60.6116 16.1508C60.9246 17.9978 61.0861 19.8769 60.9886 21.8383C60.9757 22.1415 60.8102 22.4039 60.5589 22.5736C60.3073 22.7433 59.9851 22.8059 59.6683 22.7475C59.3515 22.6889 59.0722 22.5153 58.8978 22.267C58.7239 22.0188 58.6629 21.7139 58.7591 21.4262C59.3007 19.8663 59.4115 18.0845 59.1224 16.4076C58.5384 12.8973 56.5695 9.68831 53.7415 7.6088C49.6266 4.55554 44.2931 3.73098 39.137 3.82071C24.8823 3.58718 17.6284 17.8924 16.5784 30.3774C16.5739 30.4341 16.5531 30.6018 16.5443 30.6586C16.5351 30.7177 16.5261 30.7778 16.5169 30.8373C15.8698 35.3307 15.4794 40.3347 15.5335 45.3979C23.8477 45.7159 32.531 45.7981 40.3988 44.8881C40.8284 44.8204 41.2587 44.7341 41.5101 44.6547C42.2306 44.445 42.9994 44.5325 43.6488 44.9086C44.2978 45.2843 44.7753 45.9183 44.973 46.6596C45.1704 47.4008 45.0715 48.1875 44.6956 48.8363C44.3198 49.4858 43.6973 49.9446 42.9681 50.1215C42.2706 50.2917 41.7022 50.3636 41.1341 50.4301C32.2897 51.0419 24.1199 50.5631 15.7025 49.8764C15.8791 52.5581 16.198 55.219 16.6849 57.7924C23.0552 57.8438 29.5773 57.7664 35.679 57.224C36.0423 57.1816 36.4056 57.1309 36.6527 57.0766C37.372 56.9312 38.1099 57.0962 38.7044 57.5473C39.2986 57.9976 39.7023 58.6973 39.8236 59.4799C39.9448 60.2626 39.7734 61.0616 39.346 61.6879C38.9186 62.3148 38.269 62.7181 37.5433 62.8217C37.0088 62.8999 36.5665 62.9305 36.1175 62.9584C29.8155 63.1525 23.8525 62.8965 17.8079 62.516C20.8348 72.8992 27.255 80.9248 39.262 81.3988C45.9871 81.819 52.8005 78.9752 58.4554 74.7104C60.8818 72.8691 63.2598 70.8491 65.4632 68.6381C67.9202 62.3482 69.878 55.5809 72.0198 49.5102C72.0796 49.3937 72.1394 49.2837 72.2025 49.1723C72.2756 49.0417 72.3497 48.9162 72.4261 48.7973C72.5817 48.5579 72.7272 48.3536 72.9583 48.102C73.3092 47.6937 74.1292 47.1526 74.9446 47.4027C76.0932 47.6615 76.639 48.9115 76.6771 49.7348C76.7579 50.6251 76.6228 51.4537 76.4417 52.2641C76.0691 53.8589 75.4631 55.3767 74.8304 56.8256C73.1346 60.5327 71.1593 64.1615 68.8177 67.5522C65.2081 80.3849 59.5297 92.9583 44.0169 95.5658C43.8728 95.5836 43.7278 95.5992 43.5823 95.6147C42.6269 95.9944 41.0191 97.4128 40.2884 98.7094C39.0218 100.921 38.1721 103.707 38.0443 106.395C43.8556 106.47 49.6958 107.334 55.0286 110.224C55.3653 110.421 55.6915 110.627 56.0062 110.843C56.1879 110.969 56.3507 111.099 56.5071 111.263C56.709 111.49 56.8726 111.669 57.0023 112.134C57.1189 112.55 56.9981 113.088 56.8011 113.385C56.6229 113.677 56.3975 113.872 56.2298 113.998C55.5079 114.506 54.9279 114.655 54.3187 114.841C51.2118 115.636 48.2086 115.746 45.1351 115.642C43.6051 115.571 42.0549 115.416 40.4896 115.04C38.9739 114.579 37.1018 114.311 35.8392 112.005C35.4845 111.1 35.218 110.193 35.0286 109.288C34.6687 109.316 34.3095 109.346 33.9525 109.379C30.5625 109.743 27.1309 110.401 24.0843 111.591C22.5947 112.179 21.0947 112.999 20.4554 113.858C20.3103 114.053 20.238 114.227 20.2191 114.337C20.2003 114.452 20.2038 114.532 20.2562 114.69C20.3676 115.019 20.7336 115.494 21.307 115.976C21.3669 116.027 21.4283 116.078 21.4905 116.128C30.2997 121.975 43.6173 123.026 54.7249 120.236C54.7797 120.219 54.8348 120.203 54.889 120.186C56.837 119.581 58.8088 118.622 59.9886 117.228C60.1869 116.999 60.4782 116.89 60.7806 116.906C61.083 116.922 61.3753 117.065 61.5902 117.299C61.805 117.534 61.9215 117.838 61.9105 118.141C61.8992 118.444 61.7641 118.724 61.5189 118.901C59.5229 120.333 57.4079 120.979 55.3304 121.632C55.2732 121.65 55.2152 121.667 55.1575 121.684C43.5196 124.42 30.6159 126.155 19.2327 118.922C19.1488 118.854 19.0656 118.786 18.9837 118.716C18.1431 117.974 17.3692 117.23 16.8646 115.821C16.3355 114.431 16.8547 112.631 17.6566 111.706C19.2956 109.775 21.1138 109.116 22.8968 108.429C26.4726 107.184 30.1107 106.688 33.7181 106.465C34.0394 106.452 34.3616 106.441 34.6839 106.431C34.5703 103.14 35.4066 99.8965 36.8372 96.8217C37.0197 96.4863 37.2185 96.1312 37.4398 95.7709C29.5326 95.5157 21.4837 93.5327 15.0081 88.6313C7.21561 82.8349 3.19561 73.63 1.57356 64.6693C1.02026 61.7043 0.683234 58.712 0.495432 55.7172C0.335193 53.1528 0.179065 50.5876 0.00226774 48.0043C-0.0186439 47.7032 0.106265 47.4184 0.327463 47.2123C0.548893 47.0063 0.852775 46.8957 1.16828 46.9047C1.48374 46.9139 1.7814 47.0418 1.99055 47.2602C2.19942 47.4789 2.3074 47.7712 2.26887 48.0707C1.94374 50.5766 1.84704 53.109 2.00422 55.6225C2.1881 58.5573 2.57379 61.4788 3.20539 64.3373C6.06865 82.8763 24.3574 93.3917 41.8021 91.2113C42.3697 91.1807 42.9223 91.1313 43.4603 91.0648C52.8538 89.8991 58.5822 83.2947 62.7581 74.8422C61.9815 75.6122 61.1757 76.3584 60.3372 77.0756C54.5836 81.9267 47.2805 85.7385 39.1712 85.809C26.6873 86.7531 15.0084 76.2978 11.6507 64.8197C7.73537 53.3477 7.39689 41.3793 9.04719 29.6899C9.04889 29.6787 9.05036 29.6668 9.05207 29.6557ZM38.1829 109.116C38.2781 109.708 38.4175 110.283 38.6068 110.831C38.6677 111.275 39.9536 112.048 41.2044 112.389C42.4829 112.773 43.8947 112.994 45.3011 113.12C48.1104 113.349 51.0972 113.296 53.7122 112.65C53.9229 112.595 54.1374 112.524 54.3275 112.452C54.1833 112.36 54.0356 112.27 53.8851 112.182C49.2499 109.641 43.6697 108.967 38.1829 109.116ZM74.638 48.6723C74.3192 48.5378 73.734 49.3204 73.3831 50.1635C72.1263 54.2062 71.0892 58.8461 69.8782 63.5873C71.5355 61.3931 72.986 59.0413 74.139 56.5209C74.7576 55.1071 75.2763 53.5902 75.5208 52.0844C75.7777 50.6713 75.6572 48.7476 74.638 48.6723Z" fill="#BD6368"/>
<path d="M371.881 24.3398C378.711 24.3399 385.048 25.4024 390.892 27.5273C396.811 29.5764 402.579 31.7015 408.195 33.9023C409.713 31.9293 411.421 30.3353 413.318 29.1211C415.215 27.8312 417.113 27.1865 419.01 27.1865C420.376 27.1865 421.667 27.5653 422.881 28.3242C423.488 28.7037 423.791 29.2734 423.791 30.0322C423.791 30.5634 423.601 31.0564 423.222 31.5117C422.918 31.9671 422.463 32.1953 421.855 32.1953C421.476 32.1952 421.097 32.081 420.718 31.8535C420.338 31.5499 419.769 31.3984 419.01 31.3984C418.099 31.3985 417.037 31.7398 415.822 32.4229C414.684 33.03 413.47 34.0543 412.18 35.4961C415.291 36.7103 418.441 37.7729 421.628 38.6836C424.815 39.5184 428.041 40.0497 431.305 40.2773C431.988 40.2773 433.012 40.1642 434.378 39.9365C435.744 39.7088 437.035 39.2907 438.249 38.6836C439.463 38.0765 440.146 37.2794 440.298 36.293C440.146 35.8379 440.07 35.5346 440.07 35.3828C440.07 34.3203 440.677 33.7891 441.892 33.7891C442.499 33.7891 443.068 34.0166 443.599 34.4717C444.13 34.927 444.396 35.5724 444.396 36.4072C444.396 37.0903 444.168 37.8872 443.713 38.7979C442.65 40.7709 441.095 42.1749 439.046 43.0098C437.073 43.8446 434.795 44.2617 432.215 44.2617C428.724 44.2617 424.967 43.693 420.945 42.5547C416.923 41.4163 413.166 40.2023 409.675 38.9121C407.019 43.0102 404.476 47.412 402.048 52.1172C399.619 56.7466 397.001 61.528 394.193 66.4609C393.814 67.144 393.396 67.8268 392.94 68.5098C394.458 68.6616 395.939 68.8131 397.381 68.9648C398.823 69.0407 400.113 69.0791 401.251 69.0791H402.959C403.566 69.0032 404.059 68.9274 404.438 68.8516H404.894C406.108 68.8516 406.715 69.3071 406.715 70.2178C406.715 71.1282 406.108 71.7355 404.894 72.0391C403.376 72.4184 401.744 72.6084 399.999 72.6084C398.633 72.6084 397.191 72.5317 395.673 72.3799C394.155 72.2281 392.561 72.0392 390.892 71.8115C387.249 77.6551 383.113 83.0436 378.483 87.9766C373.854 92.9095 368.617 96.8556 362.773 99.8154C356.93 102.851 350.327 104.369 342.966 104.369C335.984 104.369 330.33 103.192 326.004 100.84C321.678 98.5632 318.491 95.6036 316.441 91.9609C314.468 88.3181 313.481 84.5226 313.481 80.5762C313.482 76.8576 314.278 73.291 315.872 69.876C317.466 66.3851 319.704 63.463 322.588 61.1104C325.548 58.7578 329.001 57.3912 332.947 57.0117H333.176C333.859 57.0118 334.352 57.24 334.655 57.6953C335.035 58.0747 335.225 58.5678 335.225 59.1748C335.225 59.63 335.073 60.0474 334.77 60.4268C334.466 60.8062 334.01 61.0344 333.403 61.1104C330.292 61.338 327.56 62.4381 325.207 64.4111C322.854 66.3083 320.995 68.6993 319.629 71.583C318.339 74.4669 317.693 77.503 317.693 80.6904C317.693 83.9538 318.529 87.0656 320.198 90.0254C321.868 93.061 324.562 95.5276 328.28 97.4248C331.999 99.3221 336.894 100.271 342.966 100.271C349.796 100.27 355.829 98.9422 361.065 96.2861C366.302 93.6299 370.97 90.101 375.068 85.6992C379.166 81.2975 382.885 76.4403 386.225 71.1279C383.948 70.8244 381.633 70.5587 379.28 70.3311C376.928 70.0275 374.688 69.876 372.563 69.876C369.072 69.876 365.999 70.4073 363.343 71.4697C360.687 72.5322 358.827 74.5815 357.765 77.6172C357.461 78.6035 356.778 79.0966 355.716 79.0967C355.109 79.0967 354.577 78.831 354.122 78.2998C353.667 77.7686 353.553 77.1232 353.78 76.3643C355.298 72.2662 357.689 69.534 360.952 68.168C364.215 66.7261 367.82 66.0049 371.767 66.0049C374.575 66.0049 377.421 66.2331 380.305 66.6885C383.189 67.0679 385.845 67.4477 388.273 67.8271C391.461 62.6665 394.42 57.4671 397.152 52.2305C399.96 46.918 402.807 41.9852 405.69 37.4316C404.628 36.9764 403.604 36.5591 402.617 36.1797C401.706 35.8002 400.871 35.4962 400.112 35.2686C395.483 33.4472 390.778 31.8533 385.997 30.4873C381.216 29.1213 376.32 28.4385 371.312 28.4385C370.704 28.4385 370.059 28.4768 369.376 28.5527C368.693 28.5527 368.01 28.5901 367.327 28.666C362.167 29.1214 357.765 30.6012 354.122 33.1055C350.479 35.6099 347.709 38.5702 345.812 41.9854C343.914 45.3245 342.966 48.5497 342.966 51.6611C342.966 54.6208 343.876 57.1258 345.697 59.1748C347.519 61.2239 350.289 62.249 354.008 62.249C357.347 62.249 360.383 61.2997 363.115 59.4023C365.923 57.5051 368.238 55.19 370.06 52.458C371.957 49.6503 373.208 46.8803 373.815 44.1484C374.043 43.086 374.689 42.5547 375.751 42.5547C376.358 42.5547 376.889 42.7821 377.345 43.2373C377.8 43.6167 377.952 44.2239 377.8 45.0586C377.344 47.3354 376.434 49.6886 375.068 52.1172C373.778 54.5457 372.109 56.8607 370.06 59.0615C368.086 61.1865 365.771 62.9318 363.115 64.2979C360.535 65.588 357.727 66.2707 354.691 66.3467C349.379 66.4985 345.432 65.1328 342.852 62.249C340.347 59.3651 339.095 55.8736 339.095 51.7754C339.095 48.8915 339.702 45.9695 340.916 43.0098C342.13 39.9741 343.877 37.1279 346.153 34.4717C348.506 31.8156 351.428 29.6146 354.919 27.8691C358.41 26.0478 362.432 24.9478 366.985 24.5684C367.82 24.4925 368.655 24.4541 369.49 24.4541C370.325 24.3782 371.122 24.3398 371.881 24.3398ZM182.825 23.8848C190.035 23.8848 195.423 25.0988 198.99 27.5273C202.557 29.9559 204.34 32.7647 204.34 35.9521C204.34 38.9878 202.746 42.0614 199.559 45.1729C196.447 48.2084 191.78 50.5235 185.557 52.1172C181.61 53.1037 176.981 53.9381 171.669 54.6211C166.432 55.2282 161.006 55.5322 155.39 55.5322C150.684 55.5322 145.979 55.304 141.273 54.8486C136.644 54.3174 132.242 53.4831 128.068 52.3447C123.439 57.2777 119.758 62.4004 117.025 67.7129C114.369 72.9494 113.042 77.8449 113.042 82.3984C113.042 87.4831 115.015 91.7334 118.961 95.1484C122.907 98.5635 129.358 100.27 138.313 100.271C139.452 100.271 140.667 100.195 141.957 100.043C143.247 99.9671 144.576 99.8913 145.941 99.8154C150.646 99.2842 155.693 97.9559 161.081 95.8311C166.545 93.782 171.935 91.0116 177.247 87.5205C182.635 83.9536 187.568 79.8559 192.046 75.2266C192.343 74.9293 192.641 74.7169 192.938 74.5859C194.066 72.3401 195.417 70.0486 196.993 67.7129C199.042 64.6772 201.281 61.8694 203.71 59.2891C206.214 56.6328 208.719 54.5078 211.224 52.9141C213.728 51.2446 216.042 50.4093 218.167 50.4092C219.609 50.4092 221.014 50.6374 222.38 51.0928C223.746 51.4723 224.846 52.2693 225.681 53.4834C226.591 54.6976 227.047 56.4807 227.047 58.833C227.047 59.6678 226.819 60.2758 226.363 60.6553C225.908 61.0345 225.491 61.2236 225.111 61.2236C224.277 61.2236 223.859 60.9205 223.859 60.3135C223.48 57.885 222.683 56.2912 221.469 55.5322C220.33 54.7733 219.229 54.3936 218.167 54.3936C216.649 54.3937 214.866 55.1532 212.817 56.6709C210.768 58.1887 208.681 60.1239 206.556 62.4766C204.431 64.8292 202.42 67.3715 200.522 70.1035C198.701 72.7598 197.221 75.3403 196.083 77.8447C194.945 80.2732 194.375 82.2842 194.375 83.8779C194.375 84.6368 194.489 85.3197 194.717 85.9268C195.02 86.5339 195.476 86.8379 196.083 86.8379C197.221 86.8378 198.701 86.2307 200.522 85.0166C202.344 83.8023 204.279 82.2459 206.328 80.3486C208.453 78.3756 210.54 76.3269 212.589 74.2021C214.638 72.0772 216.497 70.0653 218.167 68.168C219.837 66.2707 221.127 64.7526 222.038 63.6143C222.493 62.9316 223.062 62.59 223.745 62.5898C224.276 62.5898 224.77 62.7797 225.226 63.1592C225.681 63.5386 225.908 64.0325 225.908 64.6396C225.908 64.9431 225.795 65.2848 225.567 65.6641C225.036 66.4988 224.391 67.6747 223.632 69.1924C222.949 70.7102 222.228 72.3424 221.469 74.0879C220.786 75.8334 220.179 77.4656 219.647 78.9834C219.192 80.4251 218.964 81.5253 218.964 82.2842C218.964 83.0429 219.23 83.4227 219.761 83.4229C220.14 83.4229 220.596 83.2329 221.127 82.8535C221.734 82.4741 222.265 82.1326 222.721 81.8291C223.922 80.8278 225.09 79.792 226.226 78.7246C226.3 78.5759 226.403 78.4337 226.537 78.2998C227.903 76.8579 229.497 74.9984 231.318 72.7217C233.216 70.445 235.075 68.0167 236.896 65.4365C238.794 62.8562 240.35 60.4655 241.564 58.2646C241.489 56.7468 241.677 55.0388 242.133 53.1416C242.664 51.2444 243.348 49.4232 244.183 47.6777C245.093 45.9322 246.08 44.49 247.143 43.3516C248.205 42.1374 249.305 41.5303 250.443 41.5303C251.658 41.5303 252.265 42.2514 252.265 43.6934C252.265 44.9075 251.886 46.4633 251.127 48.3604C250.444 50.2577 249.609 52.1171 248.622 53.9385C247.711 55.684 246.914 57.1263 246.231 58.2646C247.218 58.5682 248.242 58.7197 249.305 58.7197C251.126 58.7197 252.72 58.3782 254.086 57.6953C255.452 56.9364 256.667 56.2153 257.729 55.5322C258.792 54.7735 259.702 54.3937 260.461 54.3936C261.447 54.3936 262.093 54.6593 262.396 55.1904C262.776 55.6457 262.966 56.2529 262.966 57.0117C262.966 58.4536 262.586 60.0475 261.827 61.793C261.068 63.4622 260.5 64.5249 260.12 64.9805C259.589 65.8152 258.792 67.0678 257.729 68.7373C256.667 70.331 255.604 72.0389 254.542 73.8604C253.48 75.6817 252.607 77.4271 251.924 79.0967C251.62 79.9314 251.316 80.8042 251.013 81.7148C250.785 82.5496 250.671 83.2708 250.671 83.8779C250.671 84.8645 251.089 85.3574 251.924 85.3574C252.683 85.3573 253.783 84.9784 255.225 84.2197C257.046 83.2332 258.716 81.9807 260.233 80.4629L264.332 76.3643C264.409 76.2877 264.75 75.9086 265.356 75.2266C266.039 74.5435 266.685 73.8598 267.292 73.1768L268.316 72.1523C268.62 71.7732 268.999 71.5831 269.454 71.583C269.834 71.583 270.176 71.8112 270.479 72.2666C270.859 72.646 271.048 73.1392 271.048 73.7461C271.048 74.4291 270.859 74.9988 270.479 75.4541C269.341 77.0478 267.785 78.7931 265.812 80.6904C263.838 82.5876 262.093 84.1432 260.575 85.3574C258.981 86.5717 257.349 87.5585 255.68 88.3174C254.086 89.0004 252.492 89.3418 250.898 89.3418C249.533 89.3417 248.394 88.963 247.483 88.2041C246.649 87.4452 246.231 86.3825 246.231 85.0166C246.231 82.1327 246.953 79.2482 248.395 76.3643C249.836 73.4046 251.468 70.5207 253.289 67.7129C255.186 64.829 256.743 62.1727 257.957 59.7441C256.743 60.579 255.376 61.186 253.858 61.5654C252.341 61.9449 250.861 62.1348 249.419 62.1348C247.37 62.1348 245.776 61.8691 244.638 61.3379C243.196 63.8423 241.526 66.3846 239.629 68.9648C238.109 70.9713 236.612 72.8308 235.141 74.5449C235.048 74.8861 234.894 75.1897 234.674 75.4541C233.46 77.0478 231.866 78.8316 229.893 80.8047C227.92 82.7018 226.174 84.2191 224.656 85.3574C223.67 86.0405 222.493 86.7242 221.127 87.4072C219.837 88.0143 218.584 88.3174 217.37 88.3174C216.46 88.3173 215.701 88.0517 215.094 87.5205C214.487 86.9134 214.183 85.8891 214.183 84.4473C214.183 83.309 214.373 82.0189 214.752 80.5771C215.131 79.1352 215.587 77.6546 216.118 76.1367C213.993 78.4135 211.717 80.6526 209.288 82.8535C206.86 85.0544 204.506 86.9138 202.229 88.4316C200.029 89.8734 198.093 90.5947 196.424 90.5947C194.299 90.5947 192.705 89.9876 191.643 88.7734C190.656 87.4833 190.163 85.8893 190.163 83.9922C190.163 83.5044 190.197 82.9984 190.261 82.4746C187.063 85.4736 183.561 88.219 179.751 90.708C174.135 94.5026 168.405 97.5003 162.562 99.7012C156.718 101.978 151.254 103.344 146.169 103.8C143.589 104.027 141.084 104.142 138.655 104.142C131.749 104.142 126.057 103.192 121.579 101.295C117.102 99.4735 113.801 96.9312 111.676 93.668C109.551 90.4046 108.488 86.7241 108.488 82.626C108.488 77.9206 109.778 72.8354 112.358 67.3711C114.939 61.8311 118.658 56.4051 123.515 51.0928C123.515 51.0928 123.553 51.0544 123.629 50.9785C121.276 50.1437 119.074 49.1953 117.025 48.1328C114.976 47.0704 113.155 45.8562 111.562 44.4902C109.74 42.9724 108.375 41.3019 107.464 39.4805C106.553 37.6591 106.098 35.9137 106.098 34.2441C106.098 31.8157 107.008 29.7663 108.829 28.0967C110.651 26.3512 113.421 25.4785 117.14 25.4785C118.354 25.4785 119.644 25.5927 121.01 25.8203C122.376 25.9721 123.818 26.2752 125.336 26.7305C126.398 27.034 126.93 27.6795 126.93 28.666C126.93 29.1972 126.626 29.7286 126.02 30.2598C125.488 30.7151 124.805 30.7909 123.97 30.4873C121.466 29.8044 119.303 29.4629 117.481 29.4629C115.205 29.4629 113.459 29.9185 112.245 30.8291C111.107 31.7398 110.537 32.8781 110.537 34.2441C110.537 36.2932 111.827 38.6465 114.407 41.3027C117.063 43.8831 121.162 46.0455 126.702 47.791C131.256 43.3135 136.454 39.2915 142.298 35.7246C148.217 32.0818 154.593 29.1973 161.423 27.0723C168.253 24.9473 175.388 23.8848 182.825 23.8848ZM489.973 19.5586C492.173 19.5586 493.729 20.2042 494.64 21.4941C495.626 22.7843 496.12 24.3781 496.12 26.2754C496.12 27.4138 495.969 28.5904 495.665 29.8047C495.361 31.019 494.943 32.1956 494.412 33.334C493.35 35.5347 491.718 38.039 489.518 40.8467C487.317 43.6547 484.736 46.4251 481.776 49.1572C478.892 51.8894 475.742 54.28 472.327 56.3291C468.988 58.378 465.611 59.7063 462.196 60.3135C459.54 65.7777 457.339 70.9388 455.594 75.7959C456.428 74.6576 457.414 73.405 458.553 72.0391C459.691 70.5971 460.982 69.0791 462.424 67.4854C466.218 63.0836 470.165 59.7062 474.263 57.3535C478.361 55.0009 482.004 53.8242 485.191 53.8242C487.013 53.8242 488.379 54.2797 489.29 55.1904C490.201 56.0252 490.655 57.0879 490.655 58.3779C490.655 60.5029 489.858 62.5138 488.265 64.4111C486.671 66.3084 484.546 67.9406 481.89 69.3066C479.234 70.6726 476.236 71.6595 472.896 72.2666C472.365 73.0255 471.872 74.164 471.417 75.6816C471.038 77.1235 470.734 78.3376 470.506 79.3242C470.278 80.2349 470.165 81.0702 470.165 81.8291C470.165 83.4227 470.582 84.5611 471.417 85.2441C472.252 85.8512 473.276 86.1542 474.49 86.1543C476.615 86.1543 478.968 85.5099 481.549 84.2197C484.205 82.9296 486.292 81.6013 487.81 80.2354C489.327 78.9452 490.731 77.5787 492.021 76.1367C492.887 75.2227 493.691 74.3528 494.435 73.5303C494.514 73.4128 494.594 73.2943 494.675 73.1768C496.193 70.9759 497.862 68.6993 499.684 66.3467C500.063 65.8913 500.594 65.0944 501.277 63.9561C502.036 62.8177 502.72 61.641 503.327 60.4268C503.934 59.2127 504.199 58.264 504.123 57.5811C504.047 56.2912 504.313 55.3425 504.92 54.7354C505.527 54.0523 506.211 53.7109 506.97 53.7109C507.728 53.711 508.297 54.0143 508.677 54.6211C509.132 55.3041 509.36 56.1394 509.36 57.126C509.36 58.1885 508.981 59.5167 508.222 61.1104C507.539 62.6282 506.325 64.5635 504.579 66.916C503.213 68.7374 501.695 70.7109 500.025 72.8359C498.432 74.885 497.065 76.896 495.927 78.8691C494.788 80.8422 494.22 82.5119 494.22 83.8779C494.22 84.8645 494.637 85.3574 495.472 85.3574C496.003 85.3574 496.762 85.1302 497.749 84.6748C498.963 84.0676 500.633 82.8908 502.758 81.1455C504.959 79.4001 507.235 77.4273 509.588 75.2266C512.016 72.9499 514.217 70.7489 516.19 68.624C518.24 66.499 519.719 64.8285 520.63 63.6143C521.085 62.9313 521.655 62.5898 522.338 62.5898C522.869 62.5899 523.362 62.7799 523.817 63.1592C524.273 63.5386 524.501 64.0325 524.501 64.6396C524.501 64.9431 524.387 65.2848 524.159 65.6641C523.704 66.4988 523.097 67.6748 522.338 69.1924C521.579 70.7102 520.819 72.3424 520.061 74.0879C519.378 75.8334 518.77 77.4656 518.239 78.9834C517.784 80.4251 517.557 81.5253 517.557 82.2842C517.557 83.119 517.822 83.5361 518.354 83.5361C518.733 83.5361 519.189 83.3462 519.72 82.9668C520.327 82.5116 520.858 82.1326 521.313 81.8291C522.567 80.8261 523.753 79.788 524.874 78.7188C524.949 78.5722 525.05 78.432 525.183 78.2998C526.549 76.8579 528.142 74.9984 529.964 72.7217C531.861 70.445 533.721 68.0167 535.542 65.4365C537.439 62.8563 538.996 60.4655 540.21 58.2646C540.134 56.7468 540.324 55.0389 540.779 53.1416C541.311 51.2444 541.993 49.4232 542.828 47.6777C543.739 45.9322 544.726 44.49 545.788 43.3516C546.85 42.1374 547.951 41.5304 549.089 41.5303C550.303 41.5303 550.91 42.2514 550.91 43.6934C550.91 44.9076 550.531 46.4633 549.772 48.3604C549.089 50.2577 548.254 52.1171 547.268 53.9385C546.357 55.684 545.56 57.1263 544.877 58.2646C545.864 58.5682 546.889 58.7197 547.951 58.7197C549.772 58.7197 551.366 58.3783 552.732 57.6953C554.098 56.9364 555.313 56.2152 556.375 55.5322C557.437 54.7733 558.349 54.3936 559.107 54.3936C560.094 54.3936 560.738 54.6594 561.042 55.1904C561.421 55.6457 561.611 56.2529 561.611 57.0117C561.611 58.4536 561.232 60.0475 560.473 61.793C559.714 63.4623 559.145 64.525 558.766 64.9805C558.234 65.8153 557.437 67.0678 556.375 68.7373C555.313 70.331 554.25 72.0389 553.188 73.8604C552.125 75.6817 551.252 77.4271 550.569 79.0967C550.266 79.9314 549.962 80.8042 549.658 81.7148C549.431 82.5496 549.316 83.2708 549.316 83.8779C549.316 84.8645 549.735 85.3574 550.569 85.3574C551.328 85.3573 552.428 84.9784 553.87 84.2197C555.691 83.2332 557.361 81.9807 558.879 80.4629L562.978 76.3643C563.054 76.2878 563.396 75.9088 564.002 75.2266C564.685 74.5435 565.33 73.8598 565.938 73.1768C566.002 73.1127 566.062 73.0512 566.12 72.9932C567.063 71.2597 568.135 69.4989 569.341 67.7129C571.39 64.6772 573.629 61.8694 576.058 59.2891C578.562 56.6328 581.067 54.5078 583.571 52.9141C586.076 51.2446 588.39 50.4093 590.515 50.4092C591.956 50.4092 593.361 50.6375 594.727 51.0928C596.093 51.4722 597.194 52.2691 598.028 53.4834C598.939 54.6976 599.394 56.4807 599.395 58.833C599.395 59.6678 599.166 60.2758 598.711 60.6553C598.256 61.0345 597.838 61.2236 597.459 61.2236C596.624 61.2236 596.207 60.9205 596.207 60.3135C595.828 57.885 595.031 56.2912 593.816 55.5322C592.678 54.7733 591.577 54.3936 590.515 54.3936C588.997 54.3937 587.214 55.1532 585.165 56.6709C583.116 58.1887 581.028 60.1239 578.903 62.4766C576.778 64.8292 574.767 67.3715 572.87 70.1035C571.049 72.7598 569.569 75.3403 568.431 77.8447C567.292 80.2733 566.723 82.2842 566.723 83.8779C566.723 84.6368 566.837 85.3197 567.064 85.9268C567.368 86.5339 567.824 86.8379 568.431 86.8379C569.569 86.8377 571.049 86.2307 572.87 85.0166C574.692 83.8023 576.627 82.2459 578.676 80.3486C580.801 78.3756 582.888 76.3269 584.937 74.2021C586.986 72.0772 588.845 70.0653 590.515 68.168C592.184 66.2707 593.475 64.7526 594.386 63.6143C594.841 62.9316 595.41 62.5899 596.093 62.5898C596.624 62.5898 597.118 62.7797 597.573 63.1592C598.029 63.5386 598.256 64.0325 598.256 64.6396C598.256 64.9431 598.142 65.2848 597.914 65.6641C597.383 66.4988 596.738 67.675 595.979 69.1924C595.296 70.7102 594.575 72.3424 593.816 74.0879C593.133 75.8334 592.526 77.4655 591.995 78.9834C591.54 80.4251 591.312 81.5253 591.312 82.2842C591.312 83.0429 591.577 83.4227 592.108 83.4229C592.488 83.4229 592.943 83.2329 593.475 82.8535C594.082 82.4741 594.613 82.1326 595.068 81.8291C596.89 80.3113 598.635 78.7174 600.305 77.0479C601.974 75.3023 603.492 73.6702 604.858 72.1523C605.162 71.7729 605.542 71.583 605.997 71.583C606.377 71.583 606.718 71.8113 607.021 72.2666C607.401 72.646 607.591 73.1391 607.591 73.7461C607.591 74.4291 607.401 74.9987 607.021 75.4541C605.807 77.0478 604.213 78.8316 602.24 80.8047C600.267 82.7018 598.522 84.2191 597.004 85.3574C596.017 86.0405 594.841 86.7242 593.475 87.4072C592.185 88.0143 590.932 88.3174 589.718 88.3174C588.807 88.3173 588.048 88.0517 587.441 87.5205C586.834 86.9134 586.53 85.8891 586.53 84.4473C586.53 83.309 586.72 82.0189 587.1 80.5771C587.479 79.1352 587.935 77.6546 588.466 76.1367C586.341 78.4135 584.064 80.6527 581.636 82.8535C579.207 85.0544 576.854 86.9138 574.577 88.4316C572.376 89.8735 570.441 90.5947 568.771 90.5947C566.647 90.5947 565.053 89.9876 563.99 88.7734C563.004 87.4833 562.511 85.8893 562.511 83.9922C562.511 83.4884 562.545 82.9651 562.613 82.4229C561.378 83.5571 560.248 84.5359 559.221 85.3574C557.627 86.5716 555.996 87.5585 554.326 88.3174C552.733 89.0004 551.139 89.3417 549.545 89.3418C548.179 89.3418 547.04 88.963 546.129 88.2041C545.294 87.4452 544.877 86.3825 544.877 85.0166C544.877 82.1327 545.598 79.2482 547.04 76.3643C548.482 73.4046 550.114 70.5208 551.936 67.7129C553.833 64.8291 555.388 62.1726 556.603 59.7441C555.388 60.579 554.022 61.186 552.504 61.5654C550.986 61.9448 549.506 62.1348 548.064 62.1348C546.015 62.1348 544.422 61.8691 543.283 61.3379C541.841 63.8423 540.172 66.3846 538.274 68.9648C536.727 71.0072 535.204 72.8972 533.707 74.6367C533.612 74.9407 533.467 75.2136 533.267 75.4541C532.052 77.0478 530.459 78.8315 528.485 80.8047C526.512 82.702 524.766 84.219 523.248 85.3574C522.261 86.0404 521.086 86.7242 519.72 87.4072C518.43 88.0144 517.215 88.3174 516.076 88.3174C515.09 88.3173 514.293 88.0517 513.686 87.5205C513.155 86.9133 512.889 85.8889 512.889 84.4473C512.889 83.2331 513.079 81.829 513.458 80.2354C513.913 78.6416 514.445 77.0095 515.052 75.3398C512.471 77.9202 509.55 80.5007 506.286 83.0811C503.099 85.6613 500.177 87.5966 497.521 88.8867C495.623 89.7973 494.068 90.2529 492.854 90.2529C491.639 90.2529 490.728 89.8358 490.121 89.001C489.514 88.1662 489.211 87.141 489.211 85.9268C489.211 85.3349 489.259 84.7363 489.354 84.1309C488.815 84.579 488.301 84.9888 487.81 85.3574C486.14 86.5717 483.977 87.6726 481.321 88.6592C478.741 89.6458 476.236 90.1387 473.808 90.1387C471.531 90.1387 469.596 89.5699 468.002 88.4316C466.408 87.2174 465.611 85.1681 465.611 82.2842V81.2598C465.611 80.8804 465.649 80.5389 465.725 80.2354C466.028 78.1104 466.408 76.3267 466.863 74.8848C467.394 73.4429 468.267 71.6216 469.481 69.4209C470.772 69.2691 472.29 68.8893 474.035 68.2822C475.857 67.6751 477.526 67.0297 479.044 66.3467C480.789 65.5119 482.383 64.4118 483.825 63.0459C485.343 61.6041 486.102 60.2757 486.103 59.0615C486.103 58.1509 485.381 57.6954 483.939 57.6953C482.953 57.6953 481.586 58.0741 479.841 58.833C478.171 59.516 476.502 60.3513 474.832 61.3379C473.238 62.3245 472.024 63.1597 471.189 63.8428C468.837 65.816 466.37 68.2824 463.79 71.2422C461.286 74.126 458.971 77.1613 456.846 80.3486C454.797 83.536 453.279 86.4581 452.292 89.1143C452.292 89.7212 452.064 90.1769 451.609 90.4805C451.23 90.784 450.812 90.9355 450.356 90.9355C449.825 90.9355 449.332 90.7464 448.877 90.3672C448.422 90.0636 448.232 89.5698 448.308 88.8867C448.517 86.3249 449.05 83.475 449.907 80.3369C449.756 80.491 449.603 80.6482 449.446 80.8047C447.473 82.7018 445.728 84.2191 444.21 85.3574C443.223 86.0404 442.048 86.7242 440.682 87.4072C439.391 88.0144 438.176 88.3174 437.038 88.3174C436.052 88.3173 435.255 88.0517 434.647 87.5205C434.116 86.9133 433.851 85.8889 433.851 84.4473C433.851 83.233 434.04 81.829 434.42 80.2354C434.875 78.6416 435.407 77.0095 436.014 75.3398C433.433 77.9202 430.511 80.5007 427.248 83.0811C424.061 85.6614 421.139 87.5966 418.482 88.8867C416.585 89.7974 415.03 90.2529 413.815 90.2529C412.601 90.2529 411.69 89.8357 411.083 89.001C410.476 88.1662 410.173 87.141 410.173 85.9268C410.173 83.9537 410.704 81.9051 411.767 79.7803C412.829 77.5794 414.119 75.3776 415.637 73.1768C417.155 70.976 418.824 68.6992 420.646 66.3467C421.025 65.8913 421.556 65.0944 422.239 63.9561C422.998 62.8177 423.681 61.641 424.288 60.4268C424.895 59.2126 425.161 58.264 425.085 57.5811C425.009 56.2911 425.275 55.3425 425.882 54.7354C426.489 54.0523 427.173 53.7109 427.932 53.7109C428.69 53.7111 429.259 54.0143 429.639 54.6211C430.094 55.3041 430.322 56.1394 430.322 57.126C430.322 58.1885 429.942 59.5167 429.184 61.1104C428.501 62.6282 427.286 64.5635 425.541 66.916C424.175 68.7374 422.657 70.7109 420.987 72.8359C419.394 74.885 418.027 76.896 416.889 78.8691C415.75 80.8423 415.182 82.5119 415.182 83.8779C415.182 84.8645 415.599 85.3574 416.434 85.3574C416.965 85.3574 417.724 85.1301 418.71 84.6748C419.924 84.0677 421.594 82.891 423.719 81.1455C425.92 79.4 428.197 77.4274 430.55 75.2266C432.978 72.9498 435.179 70.749 437.152 68.624C439.201 66.499 440.681 64.8285 441.592 63.6143C442.047 62.9314 442.617 62.5898 443.3 62.5898C443.831 62.5899 444.324 62.7799 444.779 63.1592C445.235 63.5386 445.463 64.0325 445.463 64.6396C445.463 64.9431 445.349 65.2848 445.121 65.6641C444.666 66.4988 444.059 67.6748 443.3 69.1924C442.541 70.7102 441.781 72.3424 441.022 74.0879C440.339 75.8334 439.732 77.4656 439.201 78.9834C438.746 80.4251 438.519 81.5253 438.519 82.2842C438.519 83.119 438.784 83.5361 439.315 83.5361C439.695 83.536 440.151 83.3461 440.682 82.9668C441.289 82.5116 441.82 82.1326 442.275 81.8291C444.173 80.3113 445.918 78.7174 447.512 77.0479C449.181 75.3023 450.699 73.6702 452.065 72.1523C452.283 71.88 452.541 71.7066 452.837 71.6299C454.226 68.0109 455.789 64.3522 457.528 60.6553C456.769 60.5794 455.972 60.4652 455.138 60.3135C454.151 60.0858 453.658 59.4403 453.658 58.3779C453.658 57.8468 453.81 57.3911 454.113 57.0117C454.493 56.5564 454.948 56.3291 455.479 56.3291C456.011 56.3291 456.504 56.4049 456.959 56.5566C457.414 56.6325 457.908 56.6709 458.439 56.6709H459.464C462.044 51.5861 464.739 46.7664 467.547 42.2129C470.355 37.5836 472.934 33.7505 475.287 30.7148C476.729 28.8935 478.247 27.1481 479.841 25.4785C481.51 23.7331 483.18 22.3291 484.85 21.2666C486.595 20.1282 488.303 19.5586 489.973 19.5586ZM283.673 59.5166C284.28 59.5166 284.811 59.6682 285.267 59.9717C285.722 60.2752 285.95 60.655 285.95 61.1104C285.95 61.4898 285.76 61.8696 285.381 62.249C284.85 62.7803 284.166 63.653 283.331 64.8672C282.572 66.0055 281.814 67.2197 281.055 68.5098C280.296 69.724 279.726 70.7482 279.347 71.583C278.664 73.025 277.905 74.6571 277.07 76.4785C276.236 78.2998 275.628 79.7796 275.249 80.918C275.021 81.6769 274.907 82.2465 274.907 82.626C274.907 83.4606 275.211 83.8779 275.818 83.8779C276.35 83.8779 276.957 83.6506 277.64 83.1953C278.323 82.6641 278.93 82.2085 279.461 81.8291C281.358 80.3113 283.104 78.7174 284.697 77.0479C286.367 75.3023 287.885 73.6702 289.251 72.1523C289.555 71.7729 289.934 71.583 290.39 71.583C290.769 71.5831 291.111 71.8113 291.414 72.2666C291.793 72.646 291.983 73.1391 291.983 73.7461C291.983 74.4291 291.794 74.9987 291.414 75.4541C290.276 77.0478 288.682 78.8315 286.633 80.8047C284.66 82.7018 282.914 84.2191 281.396 85.3574C280.41 86.1163 279.082 86.8759 277.412 87.6348C275.819 88.3936 274.339 88.7733 272.973 88.7734C271.986 88.7734 271.189 88.5075 270.582 87.9766C269.975 87.3694 269.671 86.4201 269.671 85.1299C269.671 83.5362 270.051 81.6008 270.81 79.3242C271.568 76.9716 272.555 74.5808 273.77 72.1523C274.984 69.648 276.274 67.3713 277.64 65.3223C279.081 63.1975 280.447 61.5277 281.737 60.3135C282.269 59.7823 282.914 59.5166 283.673 59.5166ZM489.973 23.543C488.531 23.543 486.861 24.34 484.964 25.9336C483.142 27.5273 481.245 29.615 479.271 32.1953C477.298 34.6997 475.363 37.4319 473.466 40.3916C471.569 43.2755 469.862 46.0459 468.344 48.7021C466.826 51.3584 465.574 53.5592 464.587 55.3047C467.623 54.1663 470.81 52.4584 474.149 50.1816C477.488 47.905 480.638 45.211 483.598 42.0996C486.557 38.9121 488.948 35.4206 490.77 31.626C491.756 29.4251 492.249 27.7172 492.249 26.5029C492.249 25.3647 491.983 24.606 491.452 24.2266C490.921 23.7713 490.428 23.543 489.973 23.543ZM289.82 47.5635C290.883 47.5635 291.755 47.9049 292.438 48.5879C293.121 49.2709 293.463 50.1436 293.463 51.2061C293.463 52.1926 293.084 53.0279 292.325 53.7109C291.642 54.3181 290.807 54.6211 289.82 54.6211C288.91 54.6211 288.074 54.3181 287.315 53.7109C286.632 53.0279 286.291 52.1926 286.291 51.2061C286.291 50.1437 286.633 49.2709 287.315 48.5879C287.998 47.9049 288.834 47.5635 289.82 47.5635ZM182.825 27.9834C176.071 27.9834 169.582 28.9318 163.358 30.8291C157.135 32.6505 151.291 35.1553 145.827 38.3428C140.439 41.5302 135.619 45.1349 131.369 49.1572C135.012 49.9162 138.769 50.4848 142.64 50.8643C146.586 51.2437 150.532 51.4336 154.479 51.4336C160.55 51.4336 166.242 51.0922 171.555 50.4092C176.943 49.7262 181.155 48.9676 184.19 48.1328C189.579 46.7668 193.526 45.0214 196.03 42.8965C198.611 40.7715 199.9 38.6839 199.9 36.6348C199.9 34.2822 198.421 32.2712 195.461 30.6016C192.501 28.8561 188.289 27.9835 182.825 27.9834Z" fill="#66676B"/>
</svg>
